<svg xmlns="http://www.w3.org/2000/svg" width="64" height="64" viewBox="0 0 64 64">
  <defs>
    <style>
      .cls-1 {
        fill: #e0e0e0;
        fill-rule: evenodd;
      }
    </style>
  </defs>
  <path class="cls-1" d="M4,60V43c4.143,0.485,11.9-10.04,14-12,0,0,5.125,3.794,9,4,3.947,0.21,11.03-12.2,12-16A135.969,135.969,0,0,0,50,34a60.558,60.558,0,0,0,10,9V60H4Z"/>
  <path id="Line_1_copy_5" data-name="Line 1 copy 5" class="cls-1" d="M5.768,11.768L3.646,9.646l6-6,2.121,2.121Zm20,0L23.646,9.646l6-6,2.121,2.121Zm24,0L47.646,9.646l6-6,2.121,2.121Zm0,14-2.121-2.121,6-6,2.121,2.121Zm-24,0-2.121-2.121,6-6,2.121,2.121Zm-20,0L3.646,23.646l6-6,2.121,2.121Z"/>
</svg>
