<svg version="1.2" xmlns="http://www.w3.org/2000/svg" viewBox="0 0 16 16" width="16" height="16"><style>.a{opacity:1;fill:#e0e0e0}</style><path fill-rule="evenodd" class="a" d="m3 15c0 0 0.1-1.2-0.2-2.6-0.3-1.2-1.8-3.4-1.8-3.4 0 0 2 1.6 2.6 2.7 1 1.3 1.4 3.3 1.4 3.3zm2 0c0 0 0.3-2.7 0-4.5-0.2-1.7-1.5-5.5-1.5-5.5 0 0 1.8 2.5 2.5 5 1 3.2 1 5 1 5zm2 0c0 0 0.6-8.5 0.6-9.7 0.1-1.1 0.4-4.2 0.4-4.2 0 0 0.4 3.2 0.5 4.3 0.1 1.7 0.5 9.6 0.5 9.6zm2 0c0 0 0.6-3.1 1-4.4 0.7-2.2 2-4.6 2-4.6 0 0-0.9 3.6-1.1 5.2-0.2 1.8 0.1 3.8 0.1 3.8zm2 0c0 0-0.1-0.7 0.7-2.4 0.9-1.9 3.3-3.6 3.3-3.6 0 0-1.6 2-2.1 3.6-0.5 1.7 0.1 2.4 0.1 2.4z"/></svg>