<svg version="1.2" xmlns="http://www.w3.org/2000/svg" viewBox="0 0 16 16" width="16" height="16">
	<title>splat</title>
	<style>
		.s0 { fill: #e0e0e0 } 
	</style>
	<g id="g4">
		<path id="path6" class="s0" d="m14.5 1.5c0.4 0.4 0.6 1 0.5 1.5h-4.4l1.5-1.5c0.3-0.3 0.8-0.5 1.2-0.5 0.4 0 0.9 0.2 1.2 0.5z"/>
		<path id="path8" class="s0" d="m15 3q-0.1 0.5-0.5 0.9l-1 1.1h-4.8l1.9-2c0 0 4.4 0 4.4 0z"/>
		<path id="path10" class="s0" d="m13.5 5l-2 2h-4.8l2-2z"/>
		<path id="path12" class="s0" d="m11.5 7l-2 2h-3.6l-0.6-0.6 1.4-1.4c0 0 4.8 0 4.8 0z"/>
		<path id="path14" class="s0" d="m9.5 9l-1.8 1.9-1.8-1.9zm-3.9 1.5q0.3 0.2 0.4 0.5h-3.5q0-0.6 0.4-1c0.2-0.3 0.7-0.5 1.1-0.4 0.5 0 1.1 0.3 1.6 0.9z"/>
		<path id="path16" class="s0" d="m6.2 13q-0.2 0.4-0.5 0.7c-0.9 0.9-2.7 1.1-3.5 0.2-0.4-0.4-0.7-0.7-0.9-0.9z"/>
		<path id="path18" class="s0" d="m6.1 11c0.3 0.6 0.3 1.4 0.1 2h-4.9c-1.1-1.4 1.2-0.3 1.2-1.7q0-0.2 0-0.3c0 0 3.6 0 3.6 0z"/>
	</g>
</svg>